<svg xmlns="http://www.w3.org/2000/svg" width="1600" height="850" viewBox="0 50 1600 900">
  <defs>
    <marker id="arrow" markerWidth="10" markerHeight="10" refX="8" refY="3" orient="auto">
      <path d="M0,0 L8,3 L0,6 Z" fill="black"/>
    </marker>
    <marker id="arrowG" markerWidth="10" markerHeight="10" refX="8" refY="3" orient="auto">
      <path d="M0,0 L8,3 L0,6 Z" fill="#178a2f"/>
    </marker>
    <marker id="arrowB" markerWidth="10" markerHeight="10" refX="8" refY="3" orient="auto">
      <path d="M0,0 L8,3 L0,6 Z" fill="#1268b3"/>
    </marker>
    <marker id="arrowO" markerWidth="10" markerHeight="10" refX="8" refY="3" orient="auto">
      <path d="M0,0 L8,3 L0,6 Z" fill="#e66100"/>
    </marker>
  </defs>

  <style>
    .title { font: bold 36px sans-serif; }
    .label { font: 24px sans-serif; }
    .small { font: 20px sans-serif; }
    .math { font: italic 25px serif; }
    .axis { stroke: black; stroke-width: 3; marker-end: url(#arrow); }
    .dash { stroke: black; stroke-width: 2; stroke-dasharray: 8 8; }
    .dashed {stroke-dasharray: 8 8; }
    .green { stroke: #178a2f; fill: none; stroke-width: 3; }
    .blue { stroke: #1268b3; fill: none; stroke-width: 3; }
    .orange { stroke: #e66100; fill: none; stroke-width: 3; }
    .gfill { fill: #178a2f; }
    .bfill { fill: #1268b3; }
    .ofill { fill: #e66100; }
    .openG { fill: white; stroke: #178a2f; stroke-width: 3; }
    .openB { fill: white; stroke: #1268b3; stroke-width: 3; }
    .openO { fill: white; stroke: #e66100; stroke-width: 3; }
  </style>

  <rect width="1600" height="900" fill="white"/>

  <!--<text x="800" y="60" text-anchor="middle" class="title">
    Markov Modulated AIMD Process
  </text> -->

  <!-- axes -->
  <line x1="100" y1="630" x2="1540" y2="630" class="axis"/>
  <line x1="100" y1="630" x2="100" y2="130" class="axis"/>

  <text x="72" y="642" class="label">0</text>
  <text x="1515" y="675" class="math">t</text>
  <text x="25" y="130" class="math">X(t)</text>



  <!-- environment regions -->
  <rect x="100" y="150" width="220" height="480" fill="#178a2f" opacity="0.08"/>
  <rect x="320" y="150" width="220" height="480" fill="#1268b3" opacity="0.08"/>
  <rect x="540" y="150" width="220" height="480" fill="#e66100" opacity="0.08"/>
  <rect x="760" y="150" width="220" height="480" fill="#1268b3" opacity="0.08"/>
  <rect x="980" y="150" width="180" height="480" fill="#178a2f" opacity="0.08"/>
  <rect x="1160" y="150" width="220" height="480" fill="#e66100" opacity="0.08"/>
  <rect x="1380" y="150" width="130" height="480" fill="#1268b3" opacity="0.08"/>

  <!-- environment labels -->
  <text x="210" y="195" text-anchor="middle" class="label" fill="#178a2f" font-weight="bold">J(t)=1</text>
  <text x="430" y="195" text-anchor="middle" class="label" fill="#1268b3" font-weight="bold">J(t)=2</text>
  <text x="650" y="195" text-anchor="middle" class="label" fill="#e66100" font-weight="bold">J(t)=3</text>
  <text x="870" y="195" text-anchor="middle" class="label" fill="#1268b3" font-weight="bold">J(t)=2</text>
  <text x="1070" y="195" text-anchor="middle" class="label" fill="#178a2f" font-weight="bold">J(t)=1</text>
  <text x="1270" y="195" text-anchor="middle" class="label" fill="#e66100" font-weight="bold">J(t)=3</text>
  <text x="1445" y="195" text-anchor="middle" class="label" fill="#1268b3" font-weight="bold">J(t)=2</text>

    <!-- environment change times: every jump -->
  <line x1="320" y1="150" x2="320" y2="410" class="dash"/>
  <line x1="320" y1="555" x2="320" y2="630" class="dash"/>
  <!-- AIMD path: each colored linear segment has its own fixed slope -->
  <!-- E1: slope 1/c1 -->
  <polyline points="100,630 320,410" class="green"/>
  <circle cx="320" cy="410" r="7" class="gfill"/>
  <line x1="320" y1="410" x2="320" y2="555" class="green dashed" marker-end="url(#arrowG)"/>

  <!-- environment change times: every jump -->
  <line x1="540" y1="150" x2="540" y2="434" class="dash"/>
  <line x1="540" y1="560" x2="540" y2="630" class="dash"/>
  <!-- E2: slope 1/c2 -->
  <polyline points="320,555 540,434" class="blue"/>
  <circle cx="540" cy="434" r="7" class="bfill"/>
  <line x1="540" y1="434" x2="540" y2="560" class="blue dashed" marker-end="url(#arrowB)"/>

  <!-- environment change times: every jump -->
  <line x1="760" y1="150" x2="760" y2="285" class="dash"/>
  <line x1="760" y1="515" x2="760" y2="630" class="dash"/>
  <!-- E3: slope 1/c3 -->
  <polyline points="540,560 760,285" class="orange"/>
  <circle cx="760" cy="285" r="7" class="ofill"/>
  <line x1="760" y1="285" x2="760" y2="515" class="orange dashed" marker-end="url(#arrowO)"/>

  <!-- environment change times: every jump -->
  <line x1="980" y1="150" x2="980" y2="394" class="dash"/>
  <line x1="980" y1="535" x2="980" y2="630" class="dash"/>
  <!-- E2 again -->
  <polyline points="760,515 980,394" class="blue"/>
  <circle cx="980" cy="394" r="7" class="bfill"/>
  <line x1="980" y1="394" x2="980" y2="535" class="blue dashed" marker-end="url(#arrowB)"/>

  <!-- environment change times: every jump -->
  <line x1="1160" y1="150" x2="1160" y2="355" class="dash"/>
  <line x1="1160" y1="515" x2="1160" y2="630" class="dash"/>
  <!-- E1 again -->
  <polyline points="980,535 1160,355" class="green"/>
  <circle cx="1160" cy="355" r="7" class="gfill"/>
  <line x1="1160" y1="355" x2="1160" y2="515" class="green dashed" marker-end="url(#arrowG)"/>
  
  <!-- environment change times: every jump -->
  <line x1="1380" y1="150" x2="1380" y2="240" class="dash"/>
  <line x1="1380" y1="475" x2="1380" y2="630" class="dash"/>
  <!-- E3 again -->
  <polyline points="1160,515 1380,240" class="orange"/>
  <circle cx="1380" cy="240" r="7" class="ofill"/>
  <line x1="1380" y1="240" x2="1380" y2="475" class="orange dashed" marker-end="url(#arrowO)"/>
  <!-- final E2 segment -->
  <polyline points="1380,475 1510,404" class="blue"/>
  <circle cx="1510" cy="404" r="7" class="bfill"/>

  <!-- open endpoints -->
    <circle cx="320" cy="555" r="7" class="openG"/>
   <circle cx="540" cy="560" r="7" class="openB"/>
  <circle cx="760" cy="515" r="7" class="openO"/>
  <circle cx="980" cy="535" r="7" class="openB"/>
  <circle cx="1160" cy="515" r="7" class="openG"/>
  <circle cx="1380" cy="475" r="7" class="openO"/>

  <!-- slope indicators -->
  <path d="M185 555 H220 V520" fill="none" stroke="#178a2f" stroke-width="2"/>
  <text x="228" y="548" class="math">1/c₁</text>

  <path d="M380 530 H430 V502.5" fill="none" stroke="#1268b3" stroke-width="2"/>
  <text x="438" y="525" class="math">1/c₂</text>

  <path d="M600 500 H660 V425" fill="none" stroke="#e66100" stroke-width="2"/>
  <text x="668" y="492" class="math">1/c₃</text>

  <!-- jump labels -->
  <text x="330" y="490" class="math">× p₁</text>
  <text x="550" y="480" class="math">× p₂</text>
  <text x="770" y="410" class="math">× p₃</text>
  <text x="990" y="470" class="math">× p₂</text>
  <text x="1170" y="450" class="math">× p₁</text>
  <text x="1390" y="360" class="math">× p₃</text>

  <!-- explanatory box -->
  <rect x="120" y="695" width="1060" height="140" rx="18" fill="white" stroke="#cccccc" stroke-width="2"/>

  <text x="160" y="740" class="small">
    Whenever J(t)=i, the process increases linearly with fixed slope 1/cᵢ.
  </text>
  <text x="160" y="772" class="small">
    At the jump time, the value of X(t-) is multiplied by pᵢ and the environment changes to one of the other states.
  </text>
  <text x="160" y="802" class="small">
    Dashed lines mark jump times; colors identify the active Markov environment.
  </text>

  <!-- Markov chain inset: no self-loops -->
  <circle cx="1250" cy="765" r="34" fill="#178a2f" opacity="0.16" stroke="#178a2f" stroke-width="3"/>
  <circle cx="1410" cy="720" r="34" fill="#1268b3" opacity="0.16" stroke="#1268b3" stroke-width="3"/>
  <circle cx="1410" cy="825" r="34" fill="#e66100" opacity="0.16" stroke="#e66100" stroke-width="3"/>

  <text x="1250" y="773" text-anchor="middle" class="math">1</text>
  <text x="1410" y="728" text-anchor="middle" class="math">2</text>
  <text x="1410" y="833" text-anchor="middle" class="math">3</text>

  <!-- E1 -> E2 : 2/3 -->
  <path d="M1283,755 C1325,735 1355,725 1376,722"
        fill="none" stroke="black" stroke-width="2" marker-end="url(#arrow)"/>
  <text x="1305" y="730" class="small">2/3</text>

  <!-- E1 -> E3 : 1/3 -->
  <path d="M1280,782 C1325,810 1358,822 1376,824"
        fill="none" stroke="black" stroke-width="2" marker-end="url(#arrow)"/>
  <text x="1325" y="800" class="small">1/3</text>

  <!-- E2 -> E1 : 3/4 -->
  <path d="M1377,710 C1320,690 1270,705 1255,730"
        fill="none" stroke="black" stroke-width="2" marker-end="url(#arrow)"/>
  <text x="1288" y="694" class="small">3/4</text>

  <!-- E2 -> E3 : 1/4 -->
  <path d="M1410,755 C1410,775 1410,780 1410,790"
        fill="none" stroke="black" stroke-width="2" marker-end="url(#arrow)"/>
  <text x="1420" y="780" class="small">1/4</text>

  <!-- E3 -> E2 : 1 -->
  <path d="M1440,805 C1478,770 1476,745 1438,735"
        fill="none" stroke="black" stroke-width="2" marker-end="url(#arrow)"/>
  <text x="1480" y="775" class="small">1</text>

</svg>